# xmcd
#
# Track frame offsets: 
#        182
#        14247
#        30357
#        47505
#        68070
#        81090
#        95042
#        108785
#        124590
#        138472
#
# Disc length: 2007 seconds
#
# Revision: 2
# Processed by: cddbd v1.5.1PL0 Copyright (c) Steve Scherf et al.
# Submitted via: ExactAudioCopy v0.90b3
#
DISCID=7d07d50a
DTITLE=Delbert McClinton - Classics Volume 1
DYEAR=1994
DGENRE=Blues
TTITLE0=Shotgun Rider
TTITLE1=I Can't Quit You
TTITLE2=Giving It Up For Your Love
TTITLE3=The Jealous Kind 
TTITLE4=Going Back To Louisiana
TTITLE5=Baby Ruth
TTITLE6=Bright Side Of The Road
TTITLE7=Take Me To The River
TTITLE8=Shaky Ground
TTITLE9=My Sweet Baby
EXTD=
EXTT0=
EXTT1=
EXTT2=
EXTT3=
EXTT4=
EXTT5=
EXTT6=
EXTT7=
EXTT8=
EXTT9=
PLAYORDER=
